<?xml version="1.0" standalone="no"?><!DOCTYPE svg PUBLIC "-//W3C//DTD SVG 1.1//EN" "http://www.w3.org/Graphics/SVG/1.1/DTD/svg11.dtd"><svg t="1743408523131" class="icon" viewBox="0 0 1024 1024" version="1.1" xmlns="http://www.w3.org/2000/svg" p-id="5314" xmlns:xlink="http://www.w3.org/1999/xlink" width="200" height="200"><path d="M864 512a32 32 0 0 1-64 0V256a32 32 0 0 1 64 0zM224 768a32 32 0 0 1-64 0V512a32 32 0 0 1 64 0z" p-id="5315"></path><path d="M742.4 684.48a32 32 0 1 1 51.2 38.4 347.52 347.52 0 0 1-404.16 117.76A366.4 366.4 0 0 1 160 480a32 32 0 1 1 64 3.2 302.72 302.72 0 0 0 188.16 299.2 283.52 283.52 0 0 0 330.24-97.92zM281.6 339.52a32 32 0 1 1-51.2-38.4 347.52 347.52 0 0 1 404.16-117.76A366.4 366.4 0 0 1 864 545.6a32 32 0 1 1-64-3.2 302.72 302.72 0 0 0-188.48-299.2 283.52 283.52 0 0 0-329.92 96.32z" p-id="5316"></path></svg>